<?xml version="1.0" encoding="UTF-8"?>
<svg id="Layer_1" data-name="Layer 1" xmlns="http://www.w3.org/2000/svg" viewBox="0 0 1167.04 726.83">
  <defs>
    <style>
      .cls-1 {
        fill: #00a744;
      }

      .cls-1, .cls-2, .cls-3, .cls-4, .cls-5 {
        stroke: #000;
        stroke-miterlimit: 10;
      }

      .cls-2 {
        fill: #00887a;
      }

      .cls-2, .cls-4, .cls-5 {
        stroke-width: 4px;
      }

      .cls-3 {
        fill: #aa7c00;
      }

      .cls-4 {
        font-size: 135.61px;
        opacity: .72;
      }

      .cls-4, .cls-5 {
        fill: #ed1c24;
        font-family: InkFree, 'Ink Free';
      }

      .cls-5 {
        font-size: 108.16px;
      }
    </style>
  </defs>
  <ellipse class="cls-2" cx="583.52" cy="363.41" rx="581.52" ry="361.41"/>
  <text class="cls-4" transform="translate(144.94 220.8) scale(1.02 1)"><tspan x="0" y="0">Learn To Draw</tspan></text>
  <g id="Generative_Object" data-name="Generative Object">
    <path class="cls-1" d="M520.22,486.49c-2.47-3.65-4.47-1.23-8.22-1.6-.96-.09-15.14-6.95-17.25-8.02-3.21-1.63-3-6.16-5.01-.4.19-4.46-5.31-8.23-6.02-12.24-.45-2.52-1.13-12.53-1.2-15.45,2.66,7.62,2.5-.36,4.21-.8.7-.18,4.65,1.83,3.81-1.2.72.4,7.89,10.6,10.23,12.84,8.66,8.3,24.49,12.91,19.46,26.88Z"/>
    <path class="cls-1" d="M416.72,433.14c-2.6-.44-1.64,2.94-2.01,3.61-1.76,3.21-8.25,4.23-11.03,6.82-.48.45-3.48,5.61-4.01,5.22l-.8-3.61c-1.46.99.72,2.38-1.4,3.41l-.8-.4c-.41-6.8,5.64-8.6,8.83-12.44,1.17-1.4,1.95-4.93,2.21-5.01,4.26-1.46,6.04,1.23,9.03,2.41Z"/>
    <g>
      <path class="cls-1" d="M494.54,511.37c-.11-.13.22-.98-.2-1.2-.27-.14-2.71.02-3.41,0-1.03-.03-4.85.66-5.22.2.5-2.43,2.37-5,4.21-6.62,9.2-8.09,24.7-1.9,29.49-15.24.45-.17.66-.81.8-1.2.07-.19-.07-.61,0-.8,5.03-13.96-10.79-18.58-19.46-26.88-2.34-2.24-9.51-12.44-10.23-12.84-.61-.34-.48-.29-1.2-.4-.6-.09-1.36.02-2.01,0l-1.2.4c-1.01.11-2.25-.16-3.21,0-.36.06-1.03-.17-1.2.2.36.5.61,1.25.8,1.81.08,2.92.76,12.93,1.2,15.45.71,4.01,6.2,7.78,6.02,12.24-1.77,5.05-8.44,24.2-10.83,27.48-6.39,8.77-29.57,5.44-39.92,5.82-.76.03-3.09,1.09-3.81.6-.59-.4.35-1.93-.2-2.21-.75-.39-8.19.02-9.63.4-.59-3.9,5.35-9.08,8.42-10.43,6.22-2.73,12.88-.82,19.26-5.22,3.85-2.65,10.23-11.96,9.43-16.65-.62-3.6-17.48-19.52-20.86-28.48-.54-1.42-.66-5.67-1.4-6.22-.83-.6-10.04-2.83-12.04-3.61-3.84-1.5-7.59-3.3-11.43-4.81-2.99-1.18-4.76-3.87-9.03-2.41-.26.09-1.04,3.61-2.21,5.01-3.19,3.83-9.24,5.64-8.83,12.44l.8.4c2.12-1.03-.05-2.42,1.4-3.41l.8,3.61c.54.4,3.53-4.77,4.01-5.22,2.78-2.59,9.27-3.61,11.03-6.82l.8.2c-1.96,4.41-11.6,5.5-12.84,10.23-.14.54,0,.1,0,.4.01.71.68,3.3.8,4.81.02.31.06.44.4.4.16,1.3.94,2.07.6,3.21-.14.07-2.68-.99-3.01-1.2.07-.46-.33-.35-.4-.4-.02-.02.11-.41-.4-.4-2.25-2.28-1.44-6.44-3.41,0-.98-6.04-2.6-1.58-7.02-1.4l2.01,2.61c-1.71.13-2.28-.02-3.61,0l-5.01-4.01,1.4,4.01c-.17-.01-.13,1.26-2.61,0-.49-.25-6.04-7.34-6.22-7.82-3.55-9.55,9.95-15.28,16.05-19.26-2.21-3.09-1.78-8.78-2.81-11.63-2.49-6.91-27.4-27.19-34.5-37.71-6.11-9.06-16.23-36.49-22.67-40.72-7.74-5.08-8.75-1.2-15.24-.4-7.53.93-14.15-2.37-21.26-2.81-9.34-.57-25.93,5.53-32.7-1.4-2.91-2.98-2.13-4.28-2.41-7.42,2.25-1.53,2.92-3.99.6-5.62l-1.4,2.41c-2.67-4.75-5.48-4-4.81-10.63,1.95-19.39,22.55-17.92,35.1-23.47,4.83-2.14,6.24-7.39,12.04-7.22.97.03,2.79,1.06,3.81,1.2.71.1.19.43,1.6,0,2.58-.78,3.33-2.83,7.02-2.41,1.1.13,3.63,1.96,4.01,2.01,1.49.19,3.76-1.19,4.81-1.2,49.63-.8,36.81,53.74,64.59,72.61,17.22,11.7,31.24-2.87,46.94-9.23,78.69-31.85,120.6,42.42,187.35,60.58,14.11,3.84,29.51,5.83,44.13,6.42,8.82.36,25.59-1.71,32.9-.4,11.96,2.14-7.27,10.92-10.03,12.04-19.38,7.85-48.45,11.88-69.4,12.44-30.45.81-60.72-6.94-90.26,4.41l-.6.6c6.66,4.85,5.72,14.19,8.83,20.46,1.51,3.04,6.62,6.67,7.22,10.03.8,4.48-1.71,9.54-2.01,14.04-.46,7.12,2.29,20.58-4.61,24.67s-25.08,2.6-32.49,2.41c-1.85-.05-10.75.69-11.23.4-.42-.25-.08-1.07-.2-1.2Z"/>
      <g>
        <path class="cls-1" d="M400.67,454c-2.53.03-5.69,1-8.42,1.2l-2.01-2.61c4.42-.17,6.04-4.64,7.02,1.4,1.97-6.44,1.16-2.28,3.41,0Z"/>
        <path class="cls-1" d="M388.63,455.2c-1.17.02-2.46.1-3.61,0l-1.4-4.01,5.01,4.01Z"/>
        <path class="cls-1" d="M260.66,326.03c-.07-.73.57-1.01.4-1.81-.02-.1-.91-.89-1.2-1.4l1.4-2.41c2.32,1.62,1.65,4.08-.6,5.62Z"/>
        <path class="cls-1" d="M494.54,511.37l-3.61-1.2c.7.02,3.14-.14,3.41,0,.42.22.09,1.07.2,1.2Z"/>
        <path class="cls-1" d="M307.6,282.7c-1.42.43-.89.1-1.6,0h1.6Z"/>
        <path class="cls-1" d="M520.22,487.3c-.15.39-.36,1.03-.8,1.2.18-.51-.43-1.39.8-1.2Z"/>
        <path class="cls-1" d="M402.67,447.58c0-.3-.14.14,0-.4v.4Z"/>
        <path class="cls-1" d="M403.88,452.8c-.34.04-.38-.09-.4-.4.35-.04.36.1.4.4Z"/>
        <path class="cls-1" d="M401.47,454.8c-.41-.26-.37-.38-.4-.4.07.05.47-.06.4.4Z"/>
        <path class="cls-1" d="M401.07,454.4c-.17-.15-.26-.26-.4-.4.51,0,.38.38.4.4Z"/>
        <path class="cls-1" d="M527.44,430.73c12.63-10.46,23.3-11.47,39.11-10.03,41.48,3.79,84.92,13.84,125.77-2.81,1.38-.4,2.79-.5,4.01-1.4-1.36-.5-2.96.97-4.01,1.4-24.9,7.23-51.26,10.04-77.23,8.42-20.58-1.28-57.53-11.95-75.42-4.41-3.3,1.39-6.95,4.96-9.83,6.02,10.37-17.92,23.28-38.93,12.24-59.77,4.84,4,9.81,7.89,14.84,11.63,1.44,1.07,9.33,5.53,9.63,6.02.8,1.33-.54,4.84.8,6.42,1.33.51,4.44-6.46,4.81-7.62,1.14,1.24,9.19,5.24,9.43,6.22.18.73-1.6,4.49-.6,5.82l1.6-5.62c.69.84,6.07,3.09,6.22,3.41.31.69.3,9.03,1,9.03.64-1.31-1.18-7.99.4-8.42.17-.05,2.94,1.64,3.01,1.81.2.51-2.54,5.18-2.61,6.22,2.11-1.26,1.71-5.83,4.41-5.62.42.03,7.27,3.42,7.42,3.81.13.33.03,5.82.6,5.82v-5.62c1.76,1.04,11.25,3.3,12.04,4.01,1.69,1.53-.55,4.31.4,6.02l.6-4.61c3.64-1.14,6.44.37,5.82,4.61.52,0-.14-3.17.4-3.61.57-.47,12.44,3.32,14.44,2.81,1.54.87-1.06,3.04-.4,4.41.64-.69,1.28-3.82,2.01-4.01,2.37-.62,13.42,2.8,16.85,2.01l1.6,3.21v-3.21c3.79.89,4.26-.36,3.21,4.01,1.06-.66.68-3.18,1.6-3.61.45-.21,9.58.18,10.03.4.39.19.92,2.86,1.2,2.81-.24-6.4,2.1-1.2,2.41-1.2.28,0,.04-1.35.8-1.6.84-.28,15.71-.82,17.65-.8,13.46.09,3.43,4.28-2.41,6.82-21.97,9.55-58.66,13.19-82.64,12.84-22.38-.33-41.08-4.35-63.79,0-3.56.68-18.05,5.54-20.06,5.22-.64-.1-2.14-.72-1.81-1.81,1.55-1.76,3.06-3.5,4.41-5.42Z"/>
        <path class="cls-1" d="M460.84,496.12c.62-.13,1.06-.4,1.6-.4,1.9,0,2.59.48,4.21,1.2l-3.01-2.21c1.63-2.48,2.6-.47,4.81-.4-.32-.78-3.15-1.44-3.21-1.6-.14-.39,5.69-6.61,4.21-7.02-1.38,3-3.68,4.91-5.82,7.22l-4.01,2.21.8,1c-2.99.81-5.56,3.14-9.43,3.61-1.87.23-4.89.95-5.42-1,2.47-.9,2.68-1.25,5.01.2l-1-1.81c1.58-1.35,2.71,1.26,4.61,1-4.11-2.63-.75-4.08,2.01-1.2-2.48-2.89-1.63-4.24,2.01-2.81-2.64-2.6.72-3.92,3.41-2.21-3.55-.51-1.2-5.3,0-6.02,1.03-.62,3.22,1.12,4.41.4l-3.61-1.6c1.19-.74,2.3-6.44,2.61-6.62.42-.24,7.94,1.23,9.43-.6-2.57-.32-10.28,1.83-9.43-2.21,3,.93,7.16,1.42,10.23.2-2.63-.53-9.1-.11-11.23-1.6-.3-.21-2.17-3.7-2.81-4.41-7.21-7.94-15.59-15.58-18.05-26.48,11.51,1.68,23.22,4.36,35.1,3.81,4.18,5.63,1.48,13.15,3.41,19.46,1.08,3.54,5.98,7.49,5.62,11.23-.19,1.9-3.97,7.36-4.81,9.63-2.38,6.4-3.38,17-11.03,19.46-1.65.53-17.22,1.56-18.05,1.2-.46-.2-1.61-5.93-3.81-6.22,1.6-.95,3.94-1.62,5.01.2-1.03-3.04,1.03-1.45,2.41,0-2.2-4.81,1.74-1.48,2.01-1.6.29-.14-.74-4.41,4.01-.8l-2.21-3.21Z"/>
        <path class="cls-1" d="M488.12,440.76c.1.63.8,2.03.2,2.41-19.54,1.3-40.56-1.42-58.97-8.02-1.81-.65-14.14-5.78-14.24-6.62-.02-.18,1.1-1.27,1.2-3.41.72-2.68,4.44,2.02,5.82,2.81,14.34,8.22,36.99,11.79,53.36,10.43,1.64-.14,10.37-2.31,10.83-2.01.74.5-.07,4.5,1.81,4.41Z"/>
        <path class="cls-1" d="M692.32,417.89c-40.85,16.65-84.28,6.6-125.77,2.81-15.81-1.45-26.48-.43-39.11,10.03.55-.79,1.28-3.24,1.81-3.61.38-.27-.26,1.12.6.8,2.88-1.06,6.53-4.63,9.83-6.02,17.89-7.53,54.84,3.13,75.42,4.41,25.96,1.62,52.32-1.19,77.23-8.42Z"/>
        <path class="cls-1" d="M534.06,359.32c2.73,1.71,5.7,3.12,8.42,4.81s22.46,14.88,23.27,16.05c1.03,1.5.4,2.97,1,4.61-.46.76-8.42-4.71-9.43-5.42-8.11-5.7-16.58-12.81-23.27-20.06Z"/>
        <path class="cls-1" d="M405.68,431.94c.78-.25.24,1.32.2,1.4-1.45,3.21-8.45,5.09-10.43,11.63-.49,1.6.81,6.93-4.61,4.21-2.85-1.43-2.38-7-.6-9.03,1.59-1.81,13.53-3.68,15.45-8.22Z"/>
        <path class="cls-1" d="M377,398.64c-9.89-9.97-16.26-15.53-23.67-28.08l-.2-3.61c7.41,11.62,15.51,23.4,27.48,30.69-1.43.31-2.7-.58-3.61,1Z"/>
        <path class="cls-1" d="M462.25,340.47c.75.07,1.28-.22,1.81.6l-.2,17.45c-1.38-6.11-3.92-11.79-7.82-16.65.12-.36,5.84-1.44,6.22-1.4Z"/>
        <path class="cls-1" d="M501.96,504.55c2.9-.46,3.86,1.74,4.61,4.21l-10.23,2.21c-1.31-.68,4.24-6.2,5.62-6.42Z"/>
        <path class="cls-1" d="M443.39,502.54c3.15-.39,4.35,2.39,3.61,5.22h-1.2l.8-.8-9.43,1.4c-.56-1.09,5.06-5.67,6.22-5.82Z"/>
        <path class="cls-1" d="M522.02,504.55c1.66-.04,3.32,2.91,2.61,4.21-.44.82-6.61,1.55-7.82,2.21-1.23-.65,3.61-6.38,5.22-6.42Z"/>
        <path class="cls-1" d="M300.58,283.5c1.3-.17,2.77.49,4.01.8.99.57.13,1.26-.4,1.6-1.12.72-9.15,3.5-9.83,2.61,1.52-1.33,4.14-4.74,6.22-5.01Z"/>
        <path class="cls-1" d="M567.35,381.39c6.31,3.09,3.66,5.38.4,10.03l-.4-10.03Z"/>
        <path class="cls-1" d="M432.96,501.34c2.06-.24,2.74,2.2,3.01,3.81l-7.82,1.4c-1.46-.67,4.2-5.14,4.81-5.22Z"/>
        <path class="cls-1" d="M438.18,498.93c2.63-.66,4.13,2.3,3.61,0,9.47.3-2.46,2.05-4.01,5.22l-3.01-3.81c1.74-1.79,3.19.69,3.81,2.21,1.15-2.28-2.51-2.84-.4-3.61Z"/>
        <path class="cls-1" d="M494.34,503.74c1.51-.09,1.48.18,2.21,1.4.8,3.66-5.74,2.73-8.02,3.21-.24-.44,4.79-4.55,5.82-4.61Z"/>
        <path class="cls-1" d="M445.8,501.34c2.49-1,8.22,5.18,5.62,6.42-5.45,1.21-1.36-3.82-5.62-6.42Z"/>
        <path class="cls-1" d="M521.82,489.7c-1.1,2.34-2.64,5.97-4.41,7.82-.76.8-6.44,5.01-5.62,2.01l2.61-.6c.48-.66-.96-.22-1-.6s4.99-4.15,6.02-5.22c.8-.83,1.16-2.28,2.41-3.41Z"/>
        <polygon class="cls-1" points="392.45 419.9 397.46 424.11 394.45 426.72 392.45 419.9"/>
        <path class="cls-1" d="M359.15,305.97c3.13,3.58-1.4,5.07-4.41,6.42l4.41-6.42Z"/>
        <path class="cls-1" d="M401.27,448.78c1.37-.04,2,4.93,1.6,5.22-1.9-.85-2.49-2.85-2.61-4.61.35-.06.94-.6,1-.6Z"/>
        <path class="cls-1" d="M378.4,441.96c3.49-1.74-.43,4.86,0,6.02-.91-.96-.83-5.6,0-6.02Z"/>
        <path class="cls-1" d="M381.21,446.38c1.71,1.12.34,3.75.4,5.62-1.25-.49-1.43-5.47-.4-5.62Z"/>
        <path class="cls-1" d="M264.87,319.21c.46.8,2.62,5,1.6,5.62-1.45-1.66-2.36-3.37-1.6-5.62Z"/>
        <path class="cls-1" d="M272.9,320.01c1.97-.3,1.69,2.32,1.2,3.61-1.1.03-2.1-3.47-1.2-3.61Z"/>
        <polygon class="cls-1" points="282.12 320.01 283.93 320.61 283.73 324.02 282.12 320.01"/>
        <path class="cls-1" d="M463.65,492.91c-.26.28-.58.56-.8.8-.36.41-1.16.27-.8,1.2.13.33.36.48.4.8-.54,0-.99.27-1.6.4-.13.03-.28-.03-.4,0l-.8-1,4.01-2.21Z"/>
        <path class="cls-1" d="M277.31,320.41c3.02-.48,1.38,1.65,1.2,3.61l-1.2-3.61Z"/>
        <path class="cls-1" d="M267.68,319.21c1.76-.72,2.33,2.7,1.6,4.01-.53-.32-2.03-3.84-1.6-4.01Z"/>
        <path class="cls-1" d="M386.83,449.99c.98-.61,2.54,3.37,2.01,3.61-.57-.41-3.04-2.96-2.01-3.61Z"/>
        <path class="cls-1" d="M389.64,449.59c1.3,1.58,3.68.53,5.42.6-.98,1.01-5.9,1.9-5.42-.6Z"/>
        <path class="cls-1" d="M290.55,318.4c1.57-.28,1.99,2.15,1.2,3.21-.05-.49-2.69-2.94-1.2-3.21Z"/>
        <path class="cls-1" d="M280.92,322.42c.25.42,1.57,2.97.4,3.21-1.56.32-.82-2.68-.4-3.21Z"/>
        <path class="cls-1" d="M294.56,317.2c2.27-.54,1.43,2.37.8,2.41-.16,0-1.93-2.14-.8-2.41Z"/>
        <path class="cls-1" d="M268.08,323.62c.72-.02,1.33,2.73,1.2,2.81-1.54.91-1.76-1.67-1.2-2.81Z"/>
        <path class="cls-1" d="M495.95,502.54l1.81.6c1.36,3.33-1.2,1.02-1.81-.6Z"/>
        <path class="cls-1" d="M287.34,319.21c.22.17.66,2.81-.4,2.81l-1-1.81c.03-.14,1.34-1.06,1.4-1Z"/>
        <path class="cls-1" d="M275.3,323.62l.8,2.81c-.84.57-1.43-2.09-.8-2.81Z"/>
        <path class="cls-1" d="M382.01,443.57c1.27.03.7,2.88-.8,2.01-.54-.31.57-2.01.8-2.01Z"/>
        <path class="cls-1" d="M258.86,318c1.12.78,1.3,1.91.8,3.21-.18-.91-1.92-2.35-.8-3.21Z"/>
        <path class="cls-1" d="M262.47,318.4c.61-.3,1.58,1.96.8,2.81-.53-.32-1.34-2.55-.8-2.81Z"/>
        <path class="cls-1" d="M510.79,499.73c.72-.17,1.91,1.32.8,1.6-1.43.36-1.8-1.38-.8-1.6Z"/>
        <polygon class="cls-1" points="297.37 316 298.77 316.2 298.57 318 297.37 316"/>
        <path class="cls-1" d="M270.49,321.61c1.05.05.63,2.18.4,2.81-.87-.61-.75-1.92-.4-2.81Z"/>
        <path class="cls-1" d="M264.87,324.42c.78.43,1.1,2.53.4,2.41l-.4-2.41Z"/>
        <path class="cls-1" d="M394.05,359.72c.34.49.29,3.61,0,3.61-.08-.99-.78-2.81,0-3.61Z"/>
        <path class="cls-1" d="M272.5,324.82c.37.02.86,2.05,0,2.01-.81-.04-.69-2.04,0-2.01Z"/>
        <path class="cls-1" d="M285.33,322.42c.79.39,1.13,2.13.4,2.01-.58-.1-.9-1.72-.4-2.01Z"/>
        <path class="cls-1" d="M288.54,321.61c.97.6.77,1.96-.4,2.01l.4-2.01Z"/>
        <path class="cls-1" d="M482.91,446.78c-.09.78-.42,1.11-.4,2.01-.19-.56-.45-1.31-.8-1.81.17-.37.85-.14,1.2-.2Z"/>
        <path class="cls-1" d="M397.66,449.19c.9-.77.3,1.75,0,1.6-.32-.34-.34-1.31,0-1.6Z"/>
        <path class="cls-1" d="M278.11,324.82c.16-.08,1.01,1.08.4,1.2-.81.16-.79-1.02-.4-1.2Z"/>
        <path class="cls-1" d="M263.27,324.82c.31,0,.31,1.61,0,1.6s-.31-1.61,0-1.6Z"/>
        <polygon class="cls-1" points="260.46 318.4 261.06 318.61 260.86 319.21 260.66 319.01 260.46 318.4"/>
        <path class="cls-1" d="M490.53,446.78c-.02-.08-1.21.29-1.2-.4.73.11.59.06,1.2.4Z"/>
        <path class="cls-1" d="M487.32,446.38c-.06,0-.25.3-1.2.4l1.2-.4Z"/>
        <polygon class="cls-1" points="289.75 322.42 290.35 322.62 290.15 323.22 289.95 323.02 289.75 322.42"/>
        <polygon class="cls-1" points="294.16 320.41 294.56 320.81 294.56 321.21 294.16 321.21 294.16 320.41"/>
        <g>
          <path class="cls-1" d="M512.19,502.94c.19-2.02,1.76.22,2.21,0,.29-.14-1.6-4.07,4.01-1.6-4.16-3.09,1.07-3.69,3.61-1.6l-3.41-2.61c1.84-2.47,3.85-.01,6.02,0-10.3-5.63,1.08-2.65,1.2-3.21l-4.41-1.6c1.2-3.11,3.56-.8,6.02-.8-.68-1.23-3.2-1.06-3.81-1.4-.92-.52,1.18-3.1-1.81-.4,2.24-4.74-.01-6.1,6.82-5.82-7.11-.31-6.58-4.39,0-5.22h-4.81l8.42-3.61c-1.59-.2-7.21,2.49-8.22,2.21-5.33-1.47,6.46-3.08,6.42-4.01-1.65-.76-7.16,1.44-8.02,1.2-.25-.07-2.5-3.41-3.21-4.01-8.36-7.1-18.19-12.76-24.27-22.26,4.53-.98,8.73-.53,10.83-5.62-9.82,8.11-13.86,3.94-16.05-6.82-3.79-18.68.86-40.99,8.42-58.17-9.03,12.34-12.69,29.53-12.44,44.93-6.48-2.16-12.81-2.74-19.26,0,6.46-.99,12.61-1.89,18.65,1.4.43,5.69,2.14,11.31,3.01,16.85-1.87.09-1.06-3.92-1.81-4.41-.46-.31-9.19,1.87-10.83,2.01-16.36,1.36-39.02-2.21-53.36-10.43-1.37-.79-5.1-5.49-5.82-2.81.13-2.74-.17-5.5.4-8.22.6-1.05,1.73-.13,2.81.2,17.16,5.26,33.87,11.44,51.55,1.2,16.01-9.26,15.65-38.69,27.48-51.95-14.55,14.75-11.07,45.64-33.5,53.56-14.53,5.13-31.64,2.71-45.53-3.21-.96-.41-1.69-.91-2.81-1-.07-.86.78-.94.8-1l13.84,3.61-12.24-4.01c.54-.22,1.74-.47,2.21-.8,1.36-.97,1.2-1.74,1.81-2.81.69-.85,1.97-1.84,1.4-3.21-.84.71-.93,2.37-1.4,3.21-.47.57-4.07,3.35-4.01,3.61-.36.15-1.17.32-1.6.4.13-.33.37-1.15.4-1.2,2.52-.4,4.55-5.55,3.81-8.02l-.6,3.41c-.71,1.8-2.31,3.08-3.21,4.61-.56.09-.51.75-1.2-.2,1.22-4.37-.02-11.59-4.41-13.64,2.8,2.89,4.69,6.85,3.81,11.03-1.26-2.9-3.07-6.19-6.22-7.42,2.46,2.85,4.85,6.07,5.22,10.03.13,1.36-.74,13.89-1.2,14.44-.71.84-3.12,1.16-4.21,1,.4-.69.99-1.31,1.4-2.01.92.1,3.13-3.36,2.21-3.61-.71,1.22-1.49,2.4-2.21,3.61-4.34,1.54-7.6,4.96-11.43,7.22-6.28,3.69-14.88,3.47-11.43,14.24l-2.61,1c-2.17-3.32-1.44-7.47-.2-11.03l-3.01,4.61.8-3.61c-2.8,2.22-.41,4.88-4.61,1,2.98-4.74,8.34-5.92,12.24-8.63,5.13-3.56,11.29-10.87,17.45-9.03-7.54-4.53-13.38-20.46-4.01-25.67-9.45,3.5-5.78,17.32-1.2,23.67-3.93,3.92-8.49-1.59-11.23-4.81-5.6-6.59-8.41-10.57-14.84-17.05.91-1.58,2.18-.7,3.61-1-11.97-7.29-20.07-19.07-27.48-30.69l.2,3.61c-5.49-9.3-12.06-30.06-20.66-34.9-1.64-.92-3.55-1.52-5.42-1.81,4.63-1.48,9.67-3.99,12.44-8.22,7.24,6.41,8.81,16.12,12.84,24.27,5.64,11.41,12.19,21.95,20.86,31.29,5.93,6.38,13.51,11.25,18.25,18.65-.03-2.74-3.05-4.47-4.21-6.62-18.29-16.36-40.28-39.65-36.91-66.19-2,4.67-.68,9.8-.6,14.64l-6.62-13.64c.94-.21,2.93-5.07,2.21-5.22l-2.21,5.22-3.61-2.41c3.27-5,4.2-12.55,2.21-18.05,2.43,11.08-2.59,21.81-13.64,25.27.66-1.43,2.59-2.29,3.81-3.21,8.67-6.51,11.18-15.36,7.02-25.67,2.98,9.36.94,19.55-7.02,25.67l5.62-10.63c2.11-9.95-2.4-12.31-4.41-20.46-1.91-7.72,1.43-14.17-10.03-14.44,6.05-1.63,10.92-1.18,11.83,5.82l-1.6-6.02,9.83,4.21-.2,6.62c.61-9.32,3.99-6.5,2.01.8l2.01-4.81c4.47,4.17,9.14,6.18,6.02,12.84l1.4-3.81c.84-1.35,4.44,5.23,4.41,5.62-.04.56-4.79,6.03-5.22,7.22.97,1.21,6.2-2.05,7.02-3.01l.6.6c2.17,5.35,2.81,4.98-2.01,8.42,1.76.29,3.56-3.23,4.81-1.6l8.02,20.86-2.41,4.01,3.01-2.61c2.65,3.2,1.71,4.77-1.81,6.62l4.21-2.21c.5,1.84,7.69,8.83,7.82,9.43.45,2.03-2.78,4.55-2.61,6.62l3.21-6.02c2.92,1.84,2.22,2.08.8,4.81,1.13.06,1.76-2.32,2.41-2.41.29-.04,5,2.61,5.22,2.81,1.83,1.71,2.05,6.55,2.01,8.83l1.2-7.22c7.74-.65,5.6,4.49,6.42,10.03l-.2-9.03c5.97-1.99,5.85.85,8.63,5.01.5-1.26-2.68-4.96-2.61-5.42.11-.7,1.88-1.15,2.21-1,.99.43.81,8.96,2.01,10.43l-1-10.63,11.43-5.42,9.23,15.24c-1.09-5.82-4.99-10.98-8.63-15.45.08-.77,13.03-6.78,13.84-6.62,2.46.48,12.75,17.6,12.84,21.26-1.13-8.39-6.46-15.53-11.83-21.86l17.05-5.42c5.08,5.97,8.71,13.3,9.23,21.26l1.2-22.87c20.56-1.13,43.04,4.52,60.58,15.24,23.73,14.51,25.13,32.95,11.83,56.36,1.39-4.07,2.73-8.56,3.21-12.84.34-3.01.85-8.78-.4-11.23-.23,18.97-9.82,38.19-23.67,50.95,16.3-.11,14.45,15.95,20.06,25.27,1.13,1.87,5.03,5.05,5.62,6.82,1.49,4.51-.99,8.54-1.2,12.84-.73,14.54,4.49,27.68-16.45,26.48,1.81-1.7.61-4.91-1.2-6.42l3.41.6c-2.87-2.06,1.3-3.56,3.61-2.41-4.77-1.97-2.66-3.14,1.4-2.21-5.3-1.84-2.84-4.11,1.4-2.21l-3.41-2.21c1.02-1.54,2.39-1.04,3.81-.2-4.42-4.82-5.31,5.16-9.63,7.62-1.45.83-2.95.52-3.61.8-.88.37-3.01,2.41-3.21,2.41-.29,0-3.46-3.45-5.01-2.81Z"/>
          <g>
            <path class="cls-1" d="M419.52,417.09v-.4c13.89,5.92,31.01,8.34,45.53,3.21,22.43-7.91,18.94-38.81,33.5-53.56-11.83,13.26-11.47,42.69-27.48,51.95-17.68,10.23-34.39,4.06-51.55-1.2Z"/>
            <path class="cls-1" d="M343.3,328.03l6.62,13.64c-.08-4.84-1.4-9.97.6-14.64-3.37,26.55,18.61,49.83,36.91,66.19,1.16,2.14,4.18,3.88,4.21,6.62-4.74-7.4-12.33-12.27-18.25-18.65-8.67-9.34-15.22-19.89-20.86-31.29-4.03-8.15-5.59-17.86-12.84-24.27l3.61,2.41Z"/>
            <path class="cls-1" d="M496.35,437.55c1.58-.22,7.65.2,8.22,1.81,1.35,3.76-9.94,6.11-11.83,3.81,15.83.51,13.41-8.55-.4-3.21l.8-1.2c.93-.25,2.32-1.08,3.21-1.2Z"/>
            <path class="cls-1" d="M332.07,329.64c7.96-6.12,10.01-16.31,7.02-25.67,4.16,10.32,1.65,19.17-7.02,25.67Z"/>
            <path class="cls-1" d="M502.37,353.71c.29-.03,2.22-.27,2.01.4l-19.86,7.02c4.95-2.98,12.08-6.8,17.85-7.42Z"/>
            <path class="cls-1" d="M507.58,441.96c.47,5.25-6.3,9.65-11.03,7.42l4.21-.2c3.5-1.16,5.83-3.65,6.82-7.22Z"/>
            <path class="cls-1" d="M329.86,333.25c5.97-1.03,10.78,3.99,12.24,9.43-2.58-4.85-6.17-9.26-12.24-9.43Z"/>
            <path class="cls-1" d="M419.12,414.28l12.24,4.01-13.84-3.61c.44-.08,1.24-.25,1.6-.4Z"/>
            <polygon class="cls-1" points="483.11 409.87 481.71 414.48 477.09 419.1 481.3 414.08 483.11 409.87"/>
            <path class="cls-1" d="M417.92,413.48c.9-1.53,2.5-2.82,3.21-4.61l.6-3.41c.74,2.47-1.29,7.62-3.81,8.02Z"/>
            <path class="cls-1" d="M419.12,414.28c-.06-.26,3.55-3.04,4.01-3.61-.61,1.07-.44,1.84-1.81,2.81-.47.33-1.67.58-2.21.8Z"/>
            <path class="cls-1" d="M523.63,486.9c1.68,0,3.72.19,5.01,1.4-1.33-.48-4.27-.1-5.01-1.4Z"/>
            <path class="cls-1" d="M343.3,328.03l2.21-5.22c.72.14-1.27,5.01-2.21,5.22Z"/>
            <path class="cls-1" d="M411.1,426.72c.72-1.21,1.49-2.39,2.21-3.61.92.25-1.28,3.71-2.21,3.61Z"/>
            <path class="cls-1" d="M423.13,410.67c.48-.84.56-2.5,1.4-3.21.57,1.37-.71,2.36-1.4,3.21Z"/>
            <path class="cls-1" d="M518.41,501.74c.16,1.11,2.24-.27,2.21.6-.02.75-3.01,1.45-2.21-.6Z"/>
          </g>
        </g>
        <path class="cls-1" d="M692.32,417.89c1.06-.43,2.65-1.9,4.01-1.4-1.22.91-2.64,1-4.01,1.4Z"/>
        <path class="cls-1" d="M462.45,495.72c-.04-.32-.27-.48-.4-.8l.8-1.2c.22-.25.54-.52.8-.8,2.14-2.31,4.43-4.22,5.82-7.22,1.48.41-4.36,6.63-4.21,7.02.06.17,2.89.82,3.21,1.6-2.21-.07-3.19-2.08-4.81.4l3.01,2.21c-1.63-.72-2.31-1.2-4.21-1.2Z"/>
        <g>
          <path class="cls-1" d="M512.19,502.94c7.88,5.32,1.89,6.07-4.21,8.02,1-5.11-2.32-7.97-6.82-9.23,1.18,1.94-2.91,2.48-3.81.2.96.07,2.41-.93,3.01-1,3.69-.44,6.11.86,8.42,3.61.87-1.61-2.63-2.59-2.61-3.01,2.48-2.05,3.92-.01,6.02,1.4Z"/>
          <polygon class="cls-1" points="499.16 502.14 499.76 502.34 499.56 502.94 499.36 502.74 499.16 502.14"/>
        </g>
        <path class="cls-1" d="M462.05,494.92c-.36-.93.44-.8.8-1.2l-.8,1.2Z"/>
        <g>
          <path class="cls-1" d="M310.81,285.91c.03-.83.22-2.08-.8-1.4l.4,1.81c-8.51,3.39-14.81,5.72-23.47,8.83s-21.31,11.26-7.62,18.05c-19.93-12.49,28.91-29.86,21.66-6.02,3.39-6.05-.77-13.66-8.02-13.24,7.72,1.04,16.81-9.12,23.27-7.62.39.09,5.16,3.07,5.42,1.81l-3.21-1.6c-1.06-3.73,11.56.55,12.04,1.2,1.34,1.82.97,7.9,1.6,10.43,2.79,11.04,10.01,14.23.8,26.48-12.18,16.2-23.04,8.17-38.31,7.82-10.16-.23-28.49,7.97-32.29-5.01.2-.24,5.31-.21,6.22-.2.79,0-.07,1.21.8,1.2.13,0,1.21-1.15,2.41-1.2,3.38-.16,5.46-.33,8.83-.8,2-.28,1.9.82,2.01.8.39-.08,0-1.11.4-1.2,1.04-.24,1.52.42,1.6.4,1.32-.37,9.11-3.58,10.83-4.41,3.22-1.56,9.46-6.97,12.44-7.62,3.17-.69,7.82.45,11.23,0,5.18-.69,10.39-3.53,15.65-2.41l-1.6-1.2c-8.94,2.09-18.34.8-27.28,1.6-4.44.4-9.59,3.69-14.04,4.81-9.12,2.3-22.96,2.34-32.09,0-3.59-.92-3.24-1.81-2.61-5.42,2.96-16.83,24.62-18.67,37.91-21.86.37.95-1.47.76-1.4,1,.2.72,10.27-3.26,11.43-3.81,1.8-.85,5.75-4.56,7.22-4.81,5.38-.93,8.2,4.69,3.61,3.61-.16-.04-.4-1.2-.8-1.2-.22,0-3.71,1.02-4.21,1.2Z"/>
          <g>
            <path class="cls-1" d="M310.81,285.91s.15.18-.4.4l-.4-1.81c1.02-.67.83.57.8,1.4Z"/>
            <path class="cls-1" d="M268.28,305.97c.18-.29,1.47-2.83.6-3.21.41,1.62-4.82,5.98-5.42,5.01-.46-5.58,10.32-7.71,4.81-1.81Z"/>
            <path class="cls-1" d="M319.03,297.14c.92,12.53-13.01,11.09-14.84.8,3.91,9.34,13.56,11.15,14.84-.8Z"/>
            <path class="cls-1" d="M325.05,288.32c.41-.12,4.21-.04,4.21.2-7.73.32-5.63,5.75-6.22,11.43-.79-2.6-1.18-10.72,2.01-11.63Z"/>
            <path class="cls-1" d="M309.8,288.32h3.61c2.96,1.01,5.02,2.94,5.42,6.22-1.74-4.05-4.75-5.74-9.03-6.22Z"/>
            <path class="cls-1" d="M317.03,297.14c.67,3.01-2.11,6.28-5.22,6.02l4.21-3.01,1-3.01Z"/>
            <polygon class="cls-1" points="314.82 292.33 315.62 297.14 314.02 292.53 314.82 292.33"/>
            <path class="cls-1" d="M268.28,305.97c-.37.4-.73,1.6-1.6,1,.23-.76,1.55-.92,1.6-1Z"/>
            <path class="cls-1" d="M280.52,317.2c.86-.62.49,1.42,0,1.2-.31-.13-.34-.96,0-1.2Z"/>
            <path class="cls-1" d="M277.71,317.2c.5.74.16,1.66-.4.8-.28-.44.16-.48.4-.8Z"/>
            <polygon class="cls-1" points="276.51 327.63 277.11 327.83 276.51 328.43 276.31 328.23 276.51 327.63"/>
            <polygon class="cls-1" points="274.5 317.2 274.9 317.6 274.9 318 274.5 318 274.5 317.2"/>
            <polygon class="cls-1" points="271.69 317.2 272.29 317.4 271.69 318 271.49 317.8 271.69 317.2"/>
            <path class="cls-1" d="M283.73,316.8c.2-.01.27.35.2.6-.23,1.49-.71-.57-.2-.6Z"/>
            <path class="cls-1" d="M287.74,316.4c.2-.01.27.35.2.6-.23,1.49-.71-.57-.2-.6Z"/>
            <polygon class="cls-1" points="266.08 316.4 266.68 316.6 266.08 317.2 265.88 317 266.08 316.4"/>
            <path class="cls-1" d="M314.62,295.14c.2-.01.27.35.2.6-.23,1.49-.71-.57-.2-.6Z"/>
            <g>
              <path class="cls-1" d="M315.62,297.14c.28-.74.88-1.79.8-2.61-.14-1.39-1.21-1.72-1.6-2.21-2.13-2.64-5.08-2.58-8.42-.2,5.54-2.35,8.73-.17,6.82,5.62l-1-.6-1.81,1c-.02,1.35,1.44-.29,1.6.4.59,2.45-6.35.61-6.62-1.81l3.01,1.4-3.01-3.01-.6,2.21c-2.62-5.03,4.28-10.2,9.43-7.02,7.42,4.58-2.48,16.77-8.63,8.63l5.42,2.21c2.6-1.09,3.56-1.25,4.61-4.01Z"/>
              <path class="cls-1" d="M309.8,292.33c1.69-.75,2.55,1.84,1.2,2.41-1.13.48-2.67-1.75-1.2-2.41Z"/>
              <path class="cls-1" d="M315.62,297.14l-.8-4.81c.39.48,1.47.82,1.6,2.21.08.82-.52,1.87-.8,2.61Z"/>
            </g>
          </g>
        </g>
      </g>
    </g>
  </g>
  <text class="cls-5" transform="translate(249.46 636.07) scale(1.53 1)"><tspan x="0" y="0">Dinosaurs</tspan></text>
  <text/>
  <g id="Generative_Object-2" data-name="Generative Object">
    <path class="cls-3" d="M861.12,497.52c-2.47-3.65-4.47-1.23-8.22-1.6-.96-.09-15.14-6.95-17.25-8.02-3.21-1.63-3-6.16-5.01-.4.19-4.46-5.31-8.23-6.02-12.24-.45-2.52-1.13-12.53-1.2-15.45,2.66,7.62,2.5-.36,4.21-.8.7-.18,4.65,1.83,3.81-1.2.72.4,7.89,10.6,10.23,12.84,8.66,8.3,24.49,12.91,19.46,26.88Z"/>
    <path class="cls-3" d="M757.62,444.17c-2.6-.44-1.64,2.94-2.01,3.61-1.76,3.21-8.25,4.23-11.03,6.82-.48.45-3.48,5.61-4.01,5.22l-.8-3.61c-1.46.99.72,2.38-1.4,3.41l-.8-.4c-.41-6.8,5.64-8.6,8.83-12.44,1.17-1.4,1.95-4.93,2.21-5.01,4.26-1.46,6.04,1.23,9.03,2.41Z"/>
    <g>
      <path class="cls-3" d="M835.45,522.39c-.11-.13.22-.98-.2-1.2-.27-.14-2.71.02-3.41,0-1.03-.03-4.85.66-5.22.2.5-2.43,2.37-5,4.21-6.62,9.2-8.09,24.7-1.9,29.49-15.24.45-.17.66-.81.8-1.2.07-.19-.07-.61,0-.8,5.03-13.96-10.79-18.58-19.46-26.88-2.34-2.24-9.51-12.44-10.23-12.84-.61-.34-.48-.29-1.2-.4-.6-.09-1.36.02-2.01,0l-1.2.4c-1.01.11-2.25-.16-3.21,0-.36.06-1.03-.17-1.2.2.36.5.61,1.25.8,1.81.08,2.92.76,12.93,1.2,15.45.71,4.01,6.2,7.78,6.02,12.24-1.77,5.05-8.44,24.2-10.83,27.48-6.39,8.77-29.57,5.44-39.92,5.82-.76.03-3.09,1.09-3.81.6-.59-.4.35-1.93-.2-2.21-.75-.39-8.19.02-9.63.4-.59-3.9,5.35-9.08,8.42-10.43,6.22-2.73,12.88-.82,19.26-5.22,3.85-2.65,10.23-11.96,9.43-16.65-.62-3.6-17.48-19.52-20.86-28.48-.54-1.42-.66-5.67-1.4-6.22-.83-.6-10.04-2.83-12.04-3.61-3.84-1.5-7.59-3.3-11.43-4.81-2.99-1.18-4.76-3.87-9.03-2.41-.26.09-1.04,3.61-2.21,5.01-3.19,3.83-9.24,5.64-8.83,12.44l.8.4c2.12-1.03-.05-2.42,1.4-3.41l.8,3.61c.54.4,3.53-4.77,4.01-5.22,2.78-2.59,9.27-3.61,11.03-6.82l.8.2c-1.96,4.41-11.6,5.5-12.84,10.23-.14.54,0,.1,0,.4.01.71.68,3.3.8,4.81.02.31.06.44.4.4.16,1.3.94,2.07.6,3.21-.14.07-2.68-.99-3.01-1.2.07-.46-.33-.35-.4-.4-.02-.02.11-.41-.4-.4-2.25-2.28-1.44-6.44-3.41,0-.98-6.04-2.6-1.58-7.02-1.4l2.01,2.61c-1.71.13-2.28-.02-3.61,0l-5.01-4.01,1.4,4.01c-.17-.01-.13,1.26-2.61,0-.49-.25-6.04-7.34-6.22-7.82-3.55-9.55,9.95-15.28,16.05-19.26-2.21-3.09-1.78-8.78-2.81-11.63-2.49-6.91-27.4-27.19-34.5-37.71-6.11-9.06-16.23-36.49-22.67-40.72-7.74-5.08-8.75-1.2-15.24-.4-7.53.93-14.15-2.37-21.26-2.81-9.34-.57-25.93,5.53-32.7-1.4-2.91-2.98-2.13-4.28-2.41-7.42,2.25-1.53,2.92-3.99.6-5.62l-1.4,2.41c-2.67-4.75-5.48-4-4.81-10.63,1.95-19.39,22.55-17.92,35.1-23.47,4.83-2.14,6.24-7.39,12.04-7.22.97.03,2.79,1.06,3.81,1.2.71.1.19.43,1.6,0,2.58-.78,3.33-2.83,7.02-2.41,1.1.13,3.63,1.96,4.01,2.01,1.49.19,3.76-1.19,4.81-1.2,49.63-.8,36.81,53.74,64.59,72.61,17.22,11.7,31.24-2.87,46.94-9.23,78.69-31.85,120.6,42.42,187.35,60.58,14.11,3.84,29.51,5.83,44.13,6.42,8.82.36,25.59-1.71,32.9-.4,11.96,2.14-7.27,10.92-10.03,12.04-19.38,7.85-48.45,11.88-69.4,12.44-30.45.81-60.72-6.94-90.26,4.41l-.6.6c6.66,4.85,5.72,14.19,8.83,20.46,1.51,3.04,6.62,6.67,7.22,10.03.8,4.48-1.71,9.54-2.01,14.04-.46,7.12,2.29,20.58-4.61,24.67s-25.08,2.6-32.49,2.41c-1.85-.05-10.75.69-11.23.4-.42-.25-.08-1.07-.2-1.2Z"/>
      <g>
        <path class="cls-3" d="M741.57,465.03c-2.53.03-5.69,1-8.42,1.2l-2.01-2.61c4.42-.17,6.04-4.64,7.02,1.4,1.97-6.44,1.16-2.28,3.41,0Z"/>
        <path class="cls-3" d="M729.54,466.23c-1.17.02-2.46.1-3.61,0l-1.4-4.01,5.01,4.01Z"/>
        <path class="cls-3" d="M601.57,337.05c-.07-.73.57-1.01.4-1.81-.02-.1-.91-.89-1.2-1.4l1.4-2.41c2.32,1.62,1.65,4.08-.6,5.62Z"/>
        <path class="cls-3" d="M835.45,522.39l-3.61-1.2c.7.02,3.14-.14,3.41,0,.42.22.09,1.07.2,1.2Z"/>
        <path class="cls-3" d="M648.5,293.73c-1.42.43-.89.1-1.6,0h1.6Z"/>
        <path class="cls-3" d="M861.12,498.32c-.15.39-.36,1.03-.8,1.2.18-.51-.43-1.39.8-1.2Z"/>
        <path class="cls-3" d="M743.58,458.61c0-.3-.14.14,0-.4v.4Z"/>
        <path class="cls-3" d="M744.78,463.82c-.34.04-.38-.09-.4-.4.35-.04.36.1.4.4Z"/>
        <path class="cls-3" d="M742.38,465.83c-.41-.26-.37-.38-.4-.4.07.05.47-.06.4.4Z"/>
        <path class="cls-3" d="M741.98,465.43c-.17-.15-.26-.26-.4-.4.51,0,.38.38.4.4Z"/>
        <path class="cls-3" d="M868.34,441.76c12.63-10.46,23.3-11.47,39.11-10.03,41.48,3.79,84.92,13.84,125.77-2.81,1.38-.4,2.79-.5,4.01-1.4-1.36-.5-2.96.97-4.01,1.4-24.9,7.23-51.26,10.04-77.23,8.42-20.58-1.28-57.53-11.95-75.42-4.41-3.3,1.39-6.95,4.96-9.83,6.02,10.37-17.92,23.28-38.93,12.24-59.77,4.84,4,9.81,7.89,14.84,11.63,1.44,1.07,9.33,5.53,9.63,6.02.8,1.33-.54,4.84.8,6.42,1.33.51,4.44-6.46,4.81-7.62,1.14,1.24,9.19,5.24,9.43,6.22.18.73-1.6,4.49-.6,5.82l1.6-5.62c.69.84,6.07,3.09,6.22,3.41.31.69.3,9.03,1,9.03.64-1.31-1.18-7.99.4-8.42.17-.05,2.94,1.64,3.01,1.81.2.51-2.54,5.18-2.61,6.22,2.11-1.26,1.71-5.83,4.41-5.62.42.03,7.27,3.42,7.42,3.81.13.33.03,5.82.6,5.82v-5.62c1.76,1.04,11.25,3.3,12.04,4.01,1.69,1.53-.55,4.31.4,6.02l.6-4.61c3.64-1.14,6.44.37,5.82,4.61.52,0-.14-3.17.4-3.61.57-.47,12.44,3.32,14.44,2.81,1.54.87-1.06,3.04-.4,4.41.64-.69,1.28-3.82,2.01-4.01,2.37-.62,13.42,2.8,16.85,2.01l1.6,3.21v-3.21c3.79.89,4.26-.36,3.21,4.01,1.06-.66.68-3.18,1.6-3.61.45-.21,9.58.18,10.03.4.39.19.92,2.86,1.2,2.81-.24-6.4,2.1-1.2,2.41-1.2.28,0,.04-1.35.8-1.6.84-.28,15.71-.82,17.65-.8,13.46.09,3.43,4.28-2.41,6.82-21.97,9.55-58.66,13.19-82.64,12.84-22.38-.33-41.08-4.35-63.79,0-3.56.68-18.05,5.54-20.06,5.22-.64-.1-2.14-.72-1.81-1.81,1.55-1.76,3.06-3.5,4.41-5.42Z"/>
        <path class="cls-3" d="M801.75,507.15c.62-.13,1.06-.4,1.6-.4,1.9,0,2.59.48,4.21,1.2l-3.01-2.21c1.63-2.48,2.6-.47,4.81-.4-.32-.78-3.15-1.44-3.21-1.6-.14-.39,5.69-6.61,4.21-7.02-1.38,3-3.68,4.91-5.82,7.22l-4.01,2.21.8,1c-2.99.81-5.56,3.14-9.43,3.61-1.87.23-4.89.95-5.42-1,2.47-.9,2.68-1.25,5.01.2l-1-1.81c1.58-1.35,2.71,1.26,4.61,1-4.11-2.63-.75-4.08,2.01-1.2-2.48-2.89-1.63-4.24,2.01-2.81-2.64-2.6.72-3.92,3.41-2.21-3.55-.51-1.2-5.3,0-6.02,1.03-.62,3.22,1.12,4.41.4l-3.61-1.6c1.19-.74,2.3-6.44,2.61-6.62.42-.24,7.94,1.23,9.43-.6-2.57-.32-10.28,1.83-9.43-2.21,3,.93,7.16,1.42,10.23.2-2.63-.53-9.1-.11-11.23-1.6-.3-.21-2.17-3.7-2.81-4.41-7.21-7.94-15.59-15.58-18.05-26.48,11.51,1.68,23.22,4.36,35.1,3.81,4.18,5.63,1.48,13.15,3.41,19.46,1.08,3.54,5.98,7.49,5.62,11.23-.19,1.9-3.97,7.36-4.81,9.63-2.38,6.4-3.38,17-11.03,19.46-1.65.53-17.22,1.56-18.05,1.2-.46-.2-1.61-5.93-3.81-6.22,1.6-.95,3.94-1.62,5.01.2-1.03-3.04,1.03-1.45,2.41,0-2.2-4.81,1.74-1.48,2.01-1.6.29-.14-.74-4.41,4.01-.8l-2.21-3.21Z"/>
        <path class="cls-3" d="M829.03,451.79c.1.63.8,2.03.2,2.41-19.54,1.3-40.56-1.42-58.97-8.02-1.81-.65-14.14-5.78-14.24-6.62-.02-.18,1.1-1.27,1.2-3.41.72-2.68,4.44,2.02,5.82,2.81,14.34,8.22,36.99,11.79,53.36,10.43,1.64-.14,10.37-2.31,10.83-2.01.74.5-.07,4.5,1.81,4.41Z"/>
        <path class="cls-3" d="M1033.22,428.92c-40.85,16.65-84.28,6.6-125.77,2.81-15.81-1.45-26.48-.43-39.11,10.03.55-.79,1.28-3.24,1.81-3.61.38-.27-.26,1.12.6.8,2.88-1.06,6.53-4.63,9.83-6.02,17.89-7.53,54.84,3.13,75.42,4.41,25.96,1.62,52.32-1.19,77.23-8.42Z"/>
        <path class="cls-3" d="M874.96,370.35c2.73,1.71,5.7,3.12,8.42,4.81s22.46,14.88,23.27,16.05c1.03,1.5.4,2.97,1,4.61-.46.76-8.42-4.71-9.43-5.42-8.11-5.7-16.58-12.81-23.27-20.06Z"/>
        <path class="cls-3" d="M746.59,442.96c.78-.25.24,1.32.2,1.4-1.45,3.21-8.45,5.09-10.43,11.63-.49,1.6.81,6.93-4.61,4.21-2.85-1.43-2.38-7-.6-9.03,1.59-1.81,13.53-3.68,15.45-8.22Z"/>
        <path class="cls-3" d="M717.91,409.67c-9.89-9.97-16.26-15.53-23.67-28.08l-.2-3.61c7.41,11.62,15.51,23.4,27.48,30.69-1.43.31-2.7-.58-3.61,1Z"/>
        <path class="cls-3" d="M803.15,351.5c.75.07,1.28-.22,1.81.6l-.2,17.45c-1.38-6.11-3.92-11.79-7.82-16.65.12-.36,5.84-1.44,6.22-1.4Z"/>
        <path class="cls-3" d="M842.87,515.57c2.9-.46,3.86,1.74,4.61,4.21l-10.23,2.21c-1.31-.68,4.24-6.2,5.62-6.42Z"/>
        <path class="cls-3" d="M784.3,513.57c3.15-.39,4.35,2.39,3.61,5.22h-1.2l.8-.8-9.43,1.4c-.56-1.09,5.06-5.67,6.22-5.82Z"/>
        <path class="cls-3" d="M862.93,515.57c1.66-.04,3.32,2.91,2.61,4.21-.44.82-6.61,1.55-7.82,2.21-1.23-.65,3.61-6.38,5.22-6.42Z"/>
        <path class="cls-3" d="M641.48,294.53c1.3-.17,2.77.49,4.01.8.99.57.13,1.26-.4,1.6-1.12.72-9.15,3.5-9.83,2.61,1.52-1.33,4.14-4.74,6.22-5.01Z"/>
        <path class="cls-3" d="M908.26,392.41c6.31,3.09,3.66,5.38.4,10.03l-.4-10.03Z"/>
        <path class="cls-3" d="M773.87,512.36c2.06-.24,2.74,2.2,3.01,3.81l-7.82,1.4c-1.46-.67,4.2-5.14,4.81-5.22Z"/>
        <path class="cls-3" d="M779.08,509.96c2.63-.66,4.13,2.3,3.61,0,9.47.3-2.46,2.05-4.01,5.22l-3.01-3.81c1.74-1.79,3.19.69,3.81,2.21,1.15-2.28-2.51-2.84-.4-3.61Z"/>
        <path class="cls-3" d="M835.25,514.77c1.51-.09,1.48.18,2.21,1.4.8,3.66-5.74,2.73-8.02,3.21-.24-.44,4.79-4.55,5.82-4.61Z"/>
        <path class="cls-3" d="M786.71,512.36c2.49-1,8.22,5.18,5.62,6.42-5.45,1.21-1.36-3.82-5.62-6.42Z"/>
        <path class="cls-3" d="M862.73,500.73c-1.1,2.34-2.64,5.97-4.41,7.82-.76.8-6.44,5.01-5.62,2.01l2.61-.6c.48-.66-.96-.22-1-.6s4.99-4.15,6.02-5.22c.8-.83,1.16-2.28,2.41-3.41Z"/>
        <polygon class="cls-3" points="733.35 430.93 738.37 435.14 735.36 437.75 733.35 430.93"/>
        <path class="cls-3" d="M700.05,317c3.13,3.58-1.4,5.07-4.41,6.42l4.41-6.42Z"/>
        <path class="cls-3" d="M742.18,459.81c1.37-.04,2,4.93,1.6,5.22-1.9-.85-2.49-2.85-2.61-4.61.35-.06.94-.6,1-.6Z"/>
        <path class="cls-3" d="M719.31,452.99c3.49-1.74-.43,4.86,0,6.02-.91-.96-.83-5.6,0-6.02Z"/>
        <path class="cls-3" d="M722.12,457.4c1.71,1.12.34,3.75.4,5.62-1.25-.49-1.43-5.47-.4-5.62Z"/>
        <path class="cls-3" d="M605.78,330.23c.46.8,2.62,5,1.6,5.62-1.45-1.66-2.36-3.37-1.6-5.62Z"/>
        <path class="cls-3" d="M613.8,331.04c1.97-.3,1.69,2.32,1.2,3.61-1.1.03-2.1-3.47-1.2-3.61Z"/>
        <polygon class="cls-3" points="623.03 331.04 624.83 331.64 624.63 335.05 623.03 331.04"/>
        <path class="cls-3" d="M804.56,503.94c-.26.28-.58.56-.8.8-.36.41-1.16.27-.8,1.2.13.33.36.48.4.8-.54,0-.99.27-1.6.4-.13.03-.28-.03-.4,0l-.8-1,4.01-2.21Z"/>
        <path class="cls-3" d="M618.21,331.44c3.02-.48,1.38,1.65,1.2,3.61l-1.2-3.61Z"/>
        <path class="cls-3" d="M608.59,330.23c1.76-.72,2.33,2.7,1.6,4.01-.53-.32-2.03-3.84-1.6-4.01Z"/>
        <path class="cls-3" d="M727.73,461.01c.98-.61,2.54,3.37,2.01,3.61-.57-.41-3.04-2.96-2.01-3.61Z"/>
        <path class="cls-3" d="M730.54,460.61c1.3,1.58,3.68.53,5.42.6-.98,1.01-5.9,1.9-5.42-.6Z"/>
        <path class="cls-3" d="M631.45,329.43c1.57-.28,1.99,2.15,1.2,3.21-.05-.49-2.69-2.94-1.2-3.21Z"/>
        <path class="cls-3" d="M621.83,333.44c.25.42,1.57,2.97.4,3.21-1.56.32-.82-2.68-.4-3.21Z"/>
        <path class="cls-3" d="M635.47,328.23c2.27-.54,1.43,2.37.8,2.41-.16,0-1.93-2.14-.8-2.41Z"/>
        <path class="cls-3" d="M608.99,334.65c.72-.02,1.33,2.73,1.2,2.81-1.54.91-1.76-1.67-1.2-2.81Z"/>
        <path class="cls-3" d="M836.85,513.57l1.81.6c1.36,3.33-1.2,1.02-1.81-.6Z"/>
        <path class="cls-3" d="M628.24,330.23c.22.17.66,2.81-.4,2.81l-1-1.81c.03-.14,1.34-1.06,1.4-1Z"/>
        <path class="cls-3" d="M616.21,334.65l.8,2.81c-.84.57-1.43-2.09-.8-2.81Z"/>
        <path class="cls-3" d="M722.92,454.6c1.27.03.7,2.88-.8,2.01-.54-.31.57-2.01.8-2.01Z"/>
        <path class="cls-3" d="M599.76,329.03c1.12.78,1.3,1.91.8,3.21-.18-.91-1.92-2.35-.8-3.21Z"/>
        <path class="cls-3" d="M603.37,329.43c.61-.3,1.58,1.96.8,2.81-.53-.32-1.34-2.55-.8-2.81Z"/>
        <path class="cls-3" d="M851.7,510.76c.72-.17,1.91,1.32.8,1.6-1.43.36-1.8-1.38-.8-1.6Z"/>
        <polygon class="cls-3" points="638.27 327.02 639.68 327.22 639.48 329.03 638.27 327.02"/>
        <path class="cls-3" d="M611.39,332.64c1.05.05.63,2.18.4,2.81-.87-.61-.75-1.92-.4-2.81Z"/>
        <path class="cls-3" d="M605.78,335.45c.78.43,1.1,2.53.4,2.41l-.4-2.41Z"/>
        <path class="cls-3" d="M734.96,370.75c.34.49.29,3.61,0,3.61-.08-.99-.78-2.81,0-3.61Z"/>
        <path class="cls-3" d="M613.4,335.85c.37.02.86,2.05,0,2.01-.81-.04-.69-2.04,0-2.01Z"/>
        <path class="cls-3" d="M626.24,333.44c.79.39,1.13,2.13.4,2.01-.58-.1-.9-1.72-.4-2.01Z"/>
        <path class="cls-3" d="M629.45,332.64c.97.6.77,1.96-.4,2.01l.4-2.01Z"/>
        <path class="cls-3" d="M823.81,457.81c-.09.78-.42,1.11-.4,2.01-.19-.56-.45-1.31-.8-1.81.17-.37.85-.14,1.2-.2Z"/>
        <path class="cls-3" d="M738.57,460.21c.9-.77.3,1.75,0,1.6-.32-.34-.34-1.31,0-1.6Z"/>
        <path class="cls-3" d="M619.02,335.85c.16-.08,1.01,1.08.4,1.2-.81.16-.79-1.02-.4-1.2Z"/>
        <path class="cls-3" d="M604.17,335.85c.31,0,.31,1.61,0,1.6s-.31-1.61,0-1.6Z"/>
        <polygon class="cls-3" points="601.37 329.43 601.97 329.63 601.77 330.23 601.57 330.03 601.37 329.43"/>
        <path class="cls-3" d="M831.44,457.81c-.02-.08-1.21.29-1.2-.4.73.11.59.06,1.2.4Z"/>
        <path class="cls-3" d="M828.23,457.4c-.06,0-.25.3-1.2.4l1.2-.4Z"/>
        <polygon class="cls-3" points="630.65 333.44 631.25 333.64 631.05 334.25 630.85 334.04 630.65 333.44"/>
        <polygon class="cls-3" points="635.06 331.44 635.47 331.84 635.47 332.24 635.06 332.24 635.06 331.44"/>
        <g>
          <path class="cls-3" d="M853.1,513.97c.19-2.02,1.76.22,2.21,0,.29-.14-1.6-4.07,4.01-1.6-4.16-3.09,1.07-3.69,3.61-1.6l-3.41-2.61c1.84-2.47,3.85-.01,6.02,0-10.3-5.63,1.08-2.65,1.2-3.21l-4.41-1.6c1.2-3.11,3.56-.8,6.02-.8-.68-1.23-3.2-1.06-3.81-1.4-.92-.52,1.18-3.1-1.81-.4,2.24-4.74-.01-6.1,6.82-5.82-7.11-.31-6.58-4.39,0-5.22h-4.81l8.42-3.61c-1.59-.2-7.21,2.49-8.22,2.21-5.33-1.47,6.46-3.08,6.42-4.01-1.65-.76-7.16,1.44-8.02,1.2-.25-.07-2.5-3.41-3.21-4.01-8.36-7.1-18.19-12.76-24.27-22.26,4.53-.98,8.73-.53,10.83-5.62-9.82,8.11-13.86,3.94-16.05-6.82-3.79-18.68.86-40.99,8.42-58.17-9.03,12.34-12.69,29.53-12.44,44.93-6.48-2.16-12.81-2.74-19.26,0,6.46-.99,12.61-1.89,18.65,1.4.43,5.69,2.14,11.31,3.01,16.85-1.87.09-1.06-3.92-1.81-4.41-.46-.31-9.19,1.87-10.83,2.01-16.36,1.36-39.02-2.21-53.36-10.43-1.37-.79-5.1-5.49-5.82-2.81.13-2.74-.17-5.5.4-8.22.6-1.05,1.73-.13,2.81.2,17.16,5.26,33.87,11.44,51.55,1.2,16.01-9.26,15.65-38.69,27.48-51.95-14.55,14.75-11.07,45.64-33.5,53.56-14.53,5.13-31.64,2.71-45.53-3.21-.96-.41-1.69-.91-2.81-1-.07-.86.78-.94.8-1l13.84,3.61-12.24-4.01c.54-.22,1.74-.47,2.21-.8,1.36-.97,1.2-1.74,1.81-2.81.69-.85,1.97-1.84,1.4-3.21-.84.71-.93,2.37-1.4,3.21-.47.57-4.07,3.35-4.01,3.61-.36.15-1.17.32-1.6.4.13-.33.37-1.15.4-1.2,2.52-.4,4.55-5.55,3.81-8.02l-.6,3.41c-.71,1.8-2.31,3.08-3.21,4.61-.56.09-.51.75-1.2-.2,1.22-4.37-.02-11.59-4.41-13.64,2.8,2.89,4.69,6.85,3.81,11.03-1.26-2.9-3.07-6.19-6.22-7.42,2.46,2.85,4.85,6.07,5.22,10.03.13,1.36-.74,13.89-1.2,14.44-.71.84-3.12,1.16-4.21,1,.4-.69.99-1.31,1.4-2.01.92.1,3.13-3.36,2.21-3.61-.71,1.22-1.49,2.4-2.21,3.61-4.34,1.54-7.6,4.96-11.43,7.22-6.28,3.69-14.88,3.47-11.43,14.24l-2.61,1c-2.17-3.32-1.44-7.47-.2-11.03l-3.01,4.61.8-3.61c-2.8,2.22-.41,4.88-4.61,1,2.98-4.74,8.34-5.92,12.24-8.63,5.13-3.56,11.29-10.87,17.45-9.03-7.54-4.53-13.38-20.46-4.01-25.67-9.45,3.5-5.78,17.32-1.2,23.67-3.93,3.92-8.49-1.59-11.23-4.81-5.6-6.59-8.41-10.57-14.84-17.05.91-1.58,2.18-.7,3.61-1-11.97-7.29-20.07-19.07-27.48-30.69l.2,3.61c-5.49-9.3-12.06-30.06-20.66-34.9-1.64-.92-3.55-1.52-5.42-1.81,4.63-1.48,9.67-3.99,12.44-8.22,7.24,6.41,8.81,16.12,12.84,24.27,5.64,11.41,12.19,21.95,20.86,31.29,5.93,6.38,13.51,11.25,18.25,18.65-.03-2.74-3.05-4.47-4.21-6.62-18.29-16.36-40.28-39.65-36.91-66.19-2,4.67-.68,9.8-.6,14.64l-6.62-13.64c.94-.21,2.93-5.07,2.21-5.22l-2.21,5.22-3.61-2.41c3.27-5,4.2-12.55,2.21-18.05,2.43,11.08-2.59,21.81-13.64,25.27.66-1.43,2.59-2.29,3.81-3.21,8.67-6.51,11.18-15.36,7.02-25.67,2.98,9.36.94,19.55-7.02,25.67l5.62-10.63c2.11-9.95-2.4-12.31-4.41-20.46-1.91-7.72,1.43-14.17-10.03-14.44,6.05-1.63,10.92-1.18,11.83,5.82l-1.6-6.02,9.83,4.21-.2,6.62c.61-9.32,3.99-6.5,2.01.8l2.01-4.81c4.47,4.17,9.14,6.18,6.02,12.84l1.4-3.81c.84-1.35,4.44,5.23,4.41,5.62-.04.56-4.79,6.03-5.22,7.22.97,1.21,6.2-2.05,7.02-3.01l.6.6c2.17,5.35,2.81,4.98-2.01,8.42,1.76.29,3.56-3.23,4.81-1.6l8.02,20.86-2.41,4.01,3.01-2.61c2.65,3.2,1.71,4.77-1.81,6.62l4.21-2.21c.5,1.84,7.69,8.83,7.82,9.43.45,2.03-2.78,4.55-2.61,6.62l3.21-6.02c2.92,1.84,2.22,2.08.8,4.81,1.13.06,1.76-2.32,2.41-2.41.29-.04,5,2.61,5.22,2.81,1.83,1.71,2.05,6.55,2.01,8.83l1.2-7.22c7.74-.65,5.6,4.49,6.42,10.03l-.2-9.03c5.97-1.99,5.85.85,8.63,5.01.5-1.26-2.68-4.96-2.61-5.42.11-.7,1.88-1.15,2.21-1,.99.43.81,8.96,2.01,10.43l-1-10.63,11.43-5.42,9.23,15.24c-1.09-5.82-4.99-10.98-8.63-15.45.08-.77,13.03-6.78,13.84-6.62,2.46.48,12.75,17.6,12.84,21.26-1.13-8.39-6.46-15.53-11.83-21.86l17.05-5.42c5.08,5.97,8.71,13.3,9.23,21.26l1.2-22.87c20.56-1.13,43.04,4.52,60.58,15.24,23.73,14.51,25.13,32.95,11.83,56.36,1.39-4.07,2.73-8.56,3.21-12.84.34-3.01.85-8.78-.4-11.23-.23,18.97-9.82,38.19-23.67,50.95,16.3-.11,14.45,15.95,20.06,25.27,1.13,1.87,5.03,5.05,5.62,6.82,1.49,4.51-.99,8.54-1.2,12.84-.73,14.54,4.49,27.68-16.45,26.48,1.81-1.7.61-4.91-1.2-6.42l3.41.6c-2.87-2.06,1.3-3.56,3.61-2.41-4.77-1.97-2.66-3.14,1.4-2.21-5.3-1.84-2.84-4.11,1.4-2.21l-3.41-2.21c1.02-1.54,2.39-1.04,3.81-.2-4.42-4.82-5.31,5.16-9.63,7.62-1.45.83-2.95.52-3.61.8-.88.37-3.01,2.41-3.21,2.41-.29,0-3.46-3.45-5.01-2.81Z"/>
          <g>
            <path class="cls-3" d="M760.43,428.12v-.4c13.89,5.92,31.01,8.34,45.53,3.21,22.43-7.91,18.94-38.81,33.5-53.56-11.83,13.26-11.47,42.69-27.48,51.95-17.68,10.23-34.39,4.06-51.55-1.2Z"/>
            <path class="cls-3" d="M684.21,339.06l6.62,13.64c-.08-4.84-1.4-9.97.6-14.64-3.37,26.55,18.61,49.83,36.91,66.19,1.16,2.14,4.18,3.88,4.21,6.62-4.74-7.4-12.33-12.27-18.25-18.65-8.67-9.34-15.22-19.89-20.86-31.29-4.03-8.15-5.59-17.86-12.84-24.27l3.61,2.41Z"/>
            <path class="cls-3" d="M837.25,448.58c1.58-.22,7.65.2,8.22,1.81,1.35,3.76-9.94,6.11-11.83,3.81,15.83.51,13.41-8.55-.4-3.21l.8-1.2c.93-.25,2.32-1.08,3.21-1.2Z"/>
            <path class="cls-3" d="M672.97,340.66c7.96-6.12,10.01-16.31,7.02-25.67,4.16,10.32,1.65,19.17-7.02,25.67Z"/>
            <path class="cls-3" d="M843.27,364.73c.29-.03,2.22-.27,2.01.4l-19.86,7.02c4.95-2.98,12.08-6.8,17.85-7.42Z"/>
            <path class="cls-3" d="M848.49,452.99c.47,5.25-6.3,9.65-11.03,7.42l4.21-.2c3.5-1.16,5.83-3.65,6.82-7.22Z"/>
            <path class="cls-3" d="M670.77,344.27c5.97-1.03,10.78,3.99,12.24,9.43-2.58-4.85-6.17-9.26-12.24-9.43Z"/>
            <path class="cls-3" d="M760.03,425.31l12.24,4.01-13.84-3.61c.44-.08,1.24-.25,1.6-.4Z"/>
            <polygon class="cls-3" points="824.01 420.9 822.61 425.51 818 430.12 822.21 425.11 824.01 420.9"/>
            <path class="cls-3" d="M758.82,424.51c.9-1.53,2.5-2.82,3.21-4.61l.6-3.41c.74,2.47-1.29,7.62-3.81,8.02Z"/>
            <path class="cls-3" d="M760.03,425.31c-.06-.26,3.55-3.04,4.01-3.61-.61,1.07-.44,1.84-1.81,2.81-.47.33-1.67.58-2.21.8Z"/>
            <path class="cls-3" d="M864.53,497.92c1.68,0,3.72.19,5.01,1.4-1.33-.48-4.27-.1-5.01-1.4Z"/>
            <path class="cls-3" d="M684.21,339.06l2.21-5.22c.72.14-1.27,5.01-2.21,5.22Z"/>
            <path class="cls-3" d="M752,437.75c.72-1.21,1.49-2.39,2.21-3.61.92.25-1.28,3.71-2.21,3.61Z"/>
            <path class="cls-3" d="M764.04,421.7c.48-.84.56-2.5,1.4-3.21.57,1.37-.71,2.36-1.4,3.21Z"/>
            <path class="cls-3" d="M859.32,512.77c.16,1.11,2.24-.27,2.21.6-.02.75-3.01,1.45-2.21-.6Z"/>
          </g>
        </g>
        <path class="cls-3" d="M1033.22,428.92c1.06-.43,2.65-1.9,4.01-1.4-1.22.91-2.64,1-4.01,1.4Z"/>
        <path class="cls-3" d="M803.35,506.75c-.04-.32-.27-.48-.4-.8l.8-1.2c.22-.25.54-.52.8-.8,2.14-2.31,4.43-4.22,5.82-7.22,1.48.41-4.36,6.63-4.21,7.02.06.17,2.89.82,3.21,1.6-2.21-.07-3.19-2.08-4.81.4l3.01,2.21c-1.63-.72-2.31-1.2-4.21-1.2Z"/>
        <g>
          <path class="cls-3" d="M853.1,513.97c7.88,5.32,1.89,6.07-4.21,8.02,1-5.11-2.32-7.97-6.82-9.23,1.18,1.94-2.91,2.48-3.81.2.96.07,2.41-.93,3.01-1,3.69-.44,6.11.86,8.42,3.61.87-1.61-2.63-2.59-2.61-3.01,2.48-2.05,3.92-.01,6.02,1.4Z"/>
          <polygon class="cls-3" points="840.06 513.17 840.66 513.37 840.46 513.97 840.26 513.77 840.06 513.17"/>
        </g>
        <path class="cls-3" d="M802.95,505.95c-.36-.93.44-.8.8-1.2l-.8,1.2Z"/>
        <g>
          <path class="cls-3" d="M651.71,296.94c.03-.83.22-2.08-.8-1.4l.4,1.81c-8.51,3.39-14.81,5.72-23.47,8.83s-21.31,11.26-7.62,18.05c-19.93-12.49,28.91-29.86,21.66-6.02,3.39-6.05-.77-13.66-8.02-13.24,7.72,1.04,16.81-9.12,23.27-7.62.39.09,5.16,3.07,5.42,1.81l-3.21-1.6c-1.06-3.73,11.56.55,12.04,1.2,1.34,1.82.97,7.9,1.6,10.43,2.79,11.04,10.01,14.23.8,26.48-12.18,16.2-23.04,8.17-38.31,7.82-10.16-.23-28.49,7.97-32.29-5.01.2-.24,5.31-.21,6.22-.2.79,0-.07,1.21.8,1.2.13,0,1.21-1.15,2.41-1.2,3.38-.16,5.46-.33,8.83-.8,2-.28,1.9.82,2.01.8.39-.08,0-1.11.4-1.2,1.04-.24,1.52.42,1.6.4,1.32-.37,9.11-3.58,10.83-4.41,3.22-1.56,9.46-6.97,12.44-7.62,3.17-.69,7.82.45,11.23,0,5.18-.69,10.39-3.53,15.65-2.41l-1.6-1.2c-8.94,2.09-18.34.8-27.28,1.6-4.44.4-9.59,3.69-14.04,4.81-9.12,2.3-22.96,2.34-32.09,0-3.59-.92-3.24-1.81-2.61-5.42,2.96-16.83,24.62-18.67,37.91-21.86.37.95-1.47.76-1.4,1,.2.72,10.27-3.26,11.43-3.81,1.8-.85,5.75-4.56,7.22-4.81,5.38-.93,8.2,4.69,3.61,3.61-.16-.04-.4-1.2-.8-1.2-.22,0-3.71,1.02-4.21,1.2Z"/>
          <g>
            <path class="cls-3" d="M651.71,296.94s.15.18-.4.4l-.4-1.81c1.02-.67.83.57.8,1.4Z"/>
            <path class="cls-3" d="M609.19,317c.18-.29,1.47-2.83.6-3.21.41,1.62-4.82,5.98-5.42,5.01-.46-5.58,10.32-7.71,4.81-1.81Z"/>
            <path class="cls-3" d="M659.94,308.17c.92,12.53-13.01,11.09-14.84.8,3.91,9.34,13.56,11.15,14.84-.8Z"/>
            <path class="cls-3" d="M665.95,299.34c.41-.12,4.21-.04,4.21.2-7.73.32-5.63,5.75-6.22,11.43-.79-2.6-1.18-10.72,2.01-11.63Z"/>
            <path class="cls-3" d="M650.71,299.34h3.61c2.96,1.01,5.02,2.94,5.42,6.22-1.74-4.05-4.75-5.74-9.03-6.22Z"/>
            <path class="cls-3" d="M657.93,308.17c.67,3.01-2.11,6.28-5.22,6.02l4.21-3.01,1-3.01Z"/>
            <polygon class="cls-3" points="655.72 303.36 656.53 308.17 654.92 303.56 655.72 303.36"/>
            <path class="cls-3" d="M609.19,317c-.37.4-.73,1.6-1.6,1,.23-.76,1.55-.92,1.6-1Z"/>
            <path class="cls-3" d="M621.42,328.23c.86-.62.49,1.42,0,1.2-.31-.13-.34-.96,0-1.2Z"/>
            <path class="cls-3" d="M618.62,328.23c.5.74.16,1.66-.4.8-.28-.44.16-.48.4-.8Z"/>
            <polygon class="cls-3" points="617.41 338.66 618.01 338.86 617.41 339.46 617.21 339.26 617.41 338.66"/>
            <polygon class="cls-3" points="615.41 328.23 615.81 328.63 615.81 329.03 615.41 329.03 615.41 328.23"/>
            <polygon class="cls-3" points="612.6 328.23 613.2 328.43 612.6 329.03 612.4 328.83 612.6 328.23"/>
            <path class="cls-3" d="M624.63,327.83c.2-.01.27.35.2.6-.23,1.49-.71-.57-.2-.6Z"/>
            <path class="cls-3" d="M628.65,327.43c.2-.01.27.35.2.6-.23,1.49-.71-.57-.2-.6Z"/>
            <polygon class="cls-3" points="606.98 327.43 607.58 327.63 606.98 328.23 606.78 328.03 606.98 327.43"/>
            <path class="cls-3" d="M655.52,306.16c.2-.01.27.35.2.6-.23,1.49-.71-.57-.2-.6Z"/>
            <g>
              <path class="cls-3" d="M656.53,308.17c.28-.74.88-1.79.8-2.61-.14-1.39-1.21-1.72-1.6-2.21-2.13-2.64-5.08-2.58-8.42-.2,5.54-2.35,8.73-.17,6.82,5.62l-1-.6-1.81,1c-.02,1.35,1.44-.29,1.6.4.59,2.45-6.35.61-6.62-1.81l3.01,1.4-3.01-3.01-.6,2.21c-2.62-5.03,4.28-10.2,9.43-7.02,7.42,4.58-2.48,16.77-8.63,8.63l5.42,2.21c2.6-1.09,3.56-1.25,4.61-4.01Z"/>
              <path class="cls-3" d="M650.71,303.36c1.69-.75,2.55,1.84,1.2,2.41-1.13.48-2.67-1.75-1.2-2.41Z"/>
              <path class="cls-3" d="M656.53,308.17l-.8-4.81c.39.48,1.47.82,1.6,2.21.08.82-.52,1.87-.8,2.61Z"/>
            </g>
          </g>
        </g>
      </g>
    </g>
  </g>
</svg>